<svg width="83" height="32" viewBox="0 0 83 32" fill="none" xmlns="http://www.w3.org/2000/svg">
<g clip-path="url(#clip0_1_5028)">
<g clip-path="url(#clip1_1_5028)">
<g clip-path="url(#clip2_1_5028)">
<path fill-rule="evenodd" clip-rule="evenodd" d="M15.3293 0.0915527H15.7978C19.5478 0.139994 23.2636 1.59855 26.0283 4.13522C26.7597 4.78268 27.4107 5.51757 28.0014 6.2944C29.4163 8.16884 30.3957 10.3688 30.8435 12.6739C31.3533 15.2702 31.1861 17.9965 30.3567 20.509C29.8056 22.1997 28.9561 23.7912 27.8685 25.1977C26.6752 26.736 25.1918 28.0469 23.5171 29.0405C21.1948 30.4252 18.5063 31.1826 15.8037 31.2239H15.3328C12.8009 31.1849 10.2796 30.5209 8.06252 29.2957C6.08942 28.2129 4.35794 26.6953 3.0264 24.8811C1.11592 22.296 0.0448968 19.1059 0 15.8923V15.422C0.0271744 13.866 0.281196 12.3129 0.76679 10.8337C1.87976 7.38019 4.25102 4.35379 7.33649 2.4445C9.72134 0.953453 12.5173 0.133496 15.3293 0.0915527ZM13.6982 3.77663C11.3772 4.12813 9.1684 5.1773 7.42688 6.75164C6.23829 7.81912 5.26828 9.1294 4.58715 10.5738C3.56221 12.7282 3.20244 15.1899 3.56102 17.5481C3.89243 19.7723 4.86067 21.8972 6.32277 23.6051C8.17004 25.7891 10.8219 27.2701 13.648 27.7084C16.2018 28.1172 18.8826 27.6765 21.1694 26.4666C23.3008 25.3543 25.0814 23.5873 26.2115 21.4648C27.4314 19.207 27.8886 16.5575 27.5276 14.0184C23.4633 18.0526 19.409 22.0969 15.3458 26.1323C15.0375 26.4472 14.5389 26.5281 14.1354 26.3698C13.879 26.2711 13.6971 26.0584 13.5074 25.87C11.0098 23.3835 8.50972 20.8994 6.01263 18.4124C5.58552 18.0142 5.55302 17.2793 5.95296 16.8511C6.321 16.4718 6.70085 16.1032 7.07538 15.7298C7.39793 15.4055 7.92074 15.3116 8.33722 15.4982C8.60483 15.6069 8.78264 15.8438 8.98822 16.0352C10.8479 17.886 12.7082 19.7357 14.5672 21.5871C18.2795 17.889 21.9959 14.1951 25.7081 10.4976C25.8606 10.3298 26.0508 10.201 26.2634 10.1213C25.0642 7.82916 23.1142 5.94113 20.7778 4.82935C18.5955 3.77486 16.0925 3.40446 13.6982 3.77663Z" fill="white"/>
<path fill-rule="evenodd" clip-rule="evenodd" d="M15.7363 6.4439C16.1138 6.28085 16.6041 6.47048 16.7311 6.87219C16.8357 7.23137 16.8209 7.67502 16.5527 7.96271C16.2101 8.3148 15.5236 8.20019 15.3488 7.72819C15.1804 7.29162 15.2543 6.64475 15.7363 6.4439ZM15.9212 6.74341C15.7517 6.81016 15.7221 7.01633 15.7032 7.17465C15.6944 7.37492 15.6896 7.60885 15.8356 7.76658C15.9809 7.90659 16.2414 7.83038 16.2993 7.64016C16.3826 7.40327 16.395 7.13035 16.2999 6.89523C16.2432 6.74518 16.0642 6.69201 15.9212 6.74341Z" fill="white"/>
<path fill-rule="evenodd" clip-rule="evenodd" d="M17.1624 6.43628C17.3166 6.46109 17.4708 6.48472 17.6238 6.5178C17.6516 6.95259 17.6941 7.38738 17.7112 7.82335C17.8973 7.42992 18.1011 7.04593 18.289 6.65367C18.4437 6.6838 18.5979 6.71511 18.7527 6.74583C18.4573 7.27809 18.1472 7.80209 17.8447 8.33022C17.6929 8.30127 17.5411 8.27114 17.391 8.23333C17.3166 7.63431 17.2475 7.03412 17.1624 6.43628Z" fill="white"/>
<path fill-rule="evenodd" clip-rule="evenodd" d="M13.7532 6.64115C13.9954 6.51001 14.3209 6.47338 14.5667 6.61339C14.7025 6.69609 14.7717 6.84437 14.8331 6.98438C14.7025 7.01982 14.5696 7.0464 14.4355 7.06354C14.3877 6.9826 14.3262 6.91171 14.2548 6.85087C14.113 6.84969 13.957 6.87627 13.8844 7.01391C13.8164 7.19645 13.856 7.39495 13.8979 7.57867C13.934 7.7234 13.9942 7.88172 14.139 7.94966C14.2796 8.00519 14.4219 7.93193 14.5537 7.88704C14.5442 7.78956 14.5324 7.69268 14.5153 7.59639C14.4166 7.61057 14.318 7.62652 14.2193 7.64188C14.2045 7.54618 14.1892 7.45107 14.1744 7.35596C14.4048 7.31047 14.6358 7.26557 14.8662 7.22186C14.9164 7.45934 14.9625 7.698 15.0044 7.93725C14.7646 8.21904 14.367 8.3555 14.0049 8.28166C13.6746 8.19895 13.4933 7.86164 13.4519 7.54618C13.3716 7.22245 13.4437 6.81897 13.7532 6.64115Z" fill="white"/>
<path fill-rule="evenodd" clip-rule="evenodd" d="M19.5815 7.05518C19.7304 7.09771 19.8686 7.16978 20.0069 7.23949C19.9247 7.66187 19.8568 8.0878 19.7688 8.50901C20.0535 8.18587 20.3353 7.85977 20.6153 7.5325C20.7595 7.59807 20.903 7.6666 21.0448 7.73808C20.6183 8.17464 20.1965 8.61534 19.7652 9.04777C19.6276 8.97924 19.49 8.91071 19.3529 8.841C19.438 8.24671 19.5018 7.65006 19.5815 7.05518Z" fill="white"/>
<path fill-rule="evenodd" clip-rule="evenodd" d="M53.0698 7.08663C53.3498 7.08486 53.6298 7.08604 53.9104 7.08604C53.9358 7.24554 53.9612 7.44758 54.1319 7.51906C54.3635 7.61476 54.6364 7.61062 54.8686 7.51847C55.0423 7.45112 55.073 7.2485 55.0978 7.08604C55.3772 7.08545 55.6566 7.08486 55.9367 7.08663C55.9585 7.574 55.6631 8.07022 55.1823 8.20964C54.7239 8.34374 54.2129 8.34788 53.7598 8.19251C53.3055 8.03301 53.0733 7.54387 53.0698 7.08663Z" fill="white"/>
<path fill-rule="evenodd" clip-rule="evenodd" d="M77.4718 7.1227C77.9355 7.12034 78.3998 7.12152 78.8648 7.1227C78.4288 7.51673 77.9963 7.9143 77.5616 8.30892C77.2426 8.30951 76.9241 8.3101 76.6063 8.30833C76.8917 7.91135 77.1835 7.5185 77.4718 7.1227Z" fill="white"/>
<path fill-rule="evenodd" clip-rule="evenodd" d="M10.9849 7.69733C11.3512 7.53783 11.6997 7.34229 12.0613 7.17334C12.1103 7.2714 12.1599 7.37006 12.2101 7.46812C11.9821 7.58686 11.7482 7.69261 11.5166 7.80367C11.5603 7.91355 11.6052 8.02283 11.6613 8.1274C11.8586 8.03051 12.0577 7.93836 12.2544 7.84088C12.3005 7.93422 12.3466 8.02815 12.3927 8.12149C12.1983 8.21896 12.0034 8.31585 11.809 8.41391C11.8681 8.53324 11.9272 8.65198 11.9862 8.77131C12.2166 8.65907 12.4435 8.54033 12.6774 8.43695C12.7259 8.53442 12.7737 8.63189 12.8221 8.72937C12.4671 8.90836 12.1079 9.07673 11.7523 9.25277C11.4912 8.73705 11.2395 8.2166 10.9849 7.69733Z" fill="white"/>
<path fill-rule="evenodd" clip-rule="evenodd" d="M40.4904 7.8924C40.631 7.54622 40.9152 7.24612 41.2944 7.17877C41.6944 7.06299 42.086 7.23903 42.4511 7.38613C42.7447 7.50841 43.1287 7.43457 43.2764 7.12915C43.502 7.26443 43.7283 7.39794 43.9552 7.53027C43.8146 7.88767 43.5139 8.19013 43.124 8.25275C42.7418 8.352 42.3678 8.1925 42.0216 8.04776C41.7257 7.91662 41.3192 7.97569 41.1733 8.29529C40.9453 8.16119 40.7179 8.02709 40.4904 7.8924Z" fill="white"/>
<path fill-rule="evenodd" clip-rule="evenodd" d="M10.1668 8.24626C10.2784 8.1612 10.3924 8.07849 10.507 7.99756C10.8485 8.45893 11.1964 8.91558 11.5361 9.37813C11.4245 9.46202 11.3128 9.54591 11.2012 9.62979C10.8296 9.4632 10.4545 9.30311 10.0829 9.13711C10.3003 9.41712 10.5106 9.70305 10.7191 9.99015C10.6051 10.0723 10.4935 10.1567 10.383 10.243C10.0362 9.78221 9.69536 9.3167 9.34918 8.85591C9.46142 8.7738 9.57308 8.6905 9.68355 8.60544C10.0587 8.77085 10.4373 8.92739 10.8089 9.10226C10.5903 8.81988 10.3836 8.52923 10.1668 8.24626Z" fill="white"/>
<path fill-rule="evenodd" clip-rule="evenodd" d="M21.4518 8.00513C21.5676 8.08665 21.6805 8.17172 21.7921 8.25915C21.7431 8.6644 21.6875 9.06847 21.6397 9.47313C21.8435 9.18249 22.0621 8.90129 22.2765 8.61773C22.3864 8.70339 22.4986 8.7861 22.6127 8.86703C22.2677 9.32958 21.9203 9.79096 21.5741 10.2529C21.4571 10.169 21.3425 10.0822 21.2344 9.98768C21.3053 9.58715 21.3313 9.18071 21.4004 8.78019C21.1895 9.07024 20.9698 9.35321 20.7583 9.64209C20.6443 9.5582 20.532 9.47195 20.4216 9.38393C20.7624 8.92256 21.111 8.46709 21.4518 8.00513Z" fill="white"/>
<path fill-rule="evenodd" clip-rule="evenodd" d="M18.4508 8.15288C18.5796 8.12039 18.7332 8.18714 18.761 8.32597C18.7828 8.48901 18.5731 8.63375 18.4343 8.52977C18.2618 8.47956 18.2777 8.18773 18.4508 8.15288Z" fill="white"/>
<path fill-rule="evenodd" clip-rule="evenodd" d="M13.1394 8.21371C13.2971 8.17058 13.4578 8.38207 13.3521 8.51735C13.2694 8.65499 13.0218 8.68749 12.9545 8.51853C12.8824 8.38148 13.0012 8.23438 13.1394 8.21371Z" fill="white"/>
<path fill-rule="evenodd" clip-rule="evenodd" d="M41.197 8.62085C41.8816 8.62262 42.5669 8.62144 43.2522 8.62144C43.7248 11.128 44.2062 13.6328 44.6747 16.1399C44.2021 16.1405 43.7295 16.1393 43.2575 16.1405C43.1695 15.6886 43.0956 15.2343 43.0123 14.7818C42.4428 14.7812 41.874 14.7812 41.3051 14.7818C41.22 15.2319 41.1639 15.6962 41.0516 16.1363C40.6239 16.1458 40.1956 16.1381 39.7679 16.1387C40.247 13.6333 40.7155 11.1262 41.197 8.62085ZM41.4888 13.7036C41.9319 13.7013 42.3749 13.7007 42.818 13.7036C42.6006 12.4507 42.369 11.1995 42.1534 9.94649C41.9378 11.1995 41.7068 12.4507 41.4888 13.7036Z" fill="white"/>
<path fill-rule="evenodd" clip-rule="evenodd" d="M63.2241 9.37814C63.5189 8.89904 64.0807 8.6657 64.6224 8.61489C65.1476 8.5759 65.6988 8.58417 66.1867 8.80688C66.569 8.97584 66.8744 9.30843 67.0067 9.70541C67.1739 10.1881 67.1201 10.7073 67.1296 11.2089C66.6836 11.21 66.2381 11.21 65.7933 11.2089C65.7833 10.8597 65.814 10.5076 65.7697 10.1603C65.661 9.46143 64.3844 9.50751 64.3672 10.2371C64.3436 11.5604 64.3649 12.8848 64.3566 14.2081C64.3619 14.4273 64.3365 14.6636 64.447 14.8632C64.5397 15.0328 64.7359 15.1155 64.9202 15.1379C65.1612 15.1669 65.4347 15.1391 65.6208 14.9666C65.772 14.816 65.7886 14.5891 65.7915 14.3883C65.7945 13.9369 65.7909 13.4862 65.7933 13.0355C65.5824 13.0355 65.3721 13.0355 65.1624 13.0349C65.1612 12.6786 65.1618 12.3218 65.1618 11.9656C65.8175 11.9656 66.4738 11.965 67.1296 11.9662C67.1272 12.7726 67.1349 13.5789 67.126 14.3859C67.1195 14.8715 66.9807 15.386 66.6121 15.7239C66.1797 16.131 65.5546 16.2332 64.9822 16.2196C64.4192 16.2219 63.806 16.0932 63.4049 15.669C63.0581 15.3175 62.9477 14.8053 62.9453 14.3268C62.9441 13.2647 62.9453 12.2019 62.9447 11.1392C62.9489 10.5472 62.8886 9.90095 63.2241 9.37814Z" fill="white"/>
<path fill-rule="evenodd" clip-rule="evenodd" d="M34.9398 8.658C35.7373 8.658 36.5354 8.65505 37.3335 8.65919C37.8734 8.67218 38.4606 8.80865 38.8334 9.22808C39.1553 9.58489 39.2469 10.0829 39.2493 10.549C39.2516 11.7695 39.2499 12.9894 39.2505 14.2093C39.2522 14.6943 39.1695 15.2165 38.834 15.5892C38.4612 16.0087 37.874 16.1451 37.3347 16.1581C36.536 16.1623 35.7379 16.1593 34.9398 16.1593C34.9404 15.0788 34.9392 13.9978 34.9404 12.9173C34.7879 12.9173 34.6355 12.9173 34.4837 12.9167C34.4825 12.6001 34.4831 12.2828 34.4831 11.9662C34.6349 11.9656 34.7874 11.9656 34.9398 11.965C34.9398 10.8627 34.9404 9.76034 34.9398 8.658ZM36.3552 9.72726C36.357 10.4734 36.3558 11.2189 36.3558 11.965C36.6417 11.9662 36.9282 11.965 37.2147 11.9656C37.2141 12.2828 37.2147 12.5995 37.2141 12.9167C36.9276 12.9179 36.6411 12.9167 36.3552 12.9173C36.357 13.6433 36.3558 14.3699 36.3558 15.096C36.7226 15.0824 37.1001 15.1379 37.4593 15.0387C37.7127 14.9631 37.8409 14.6943 37.8327 14.4438C37.8362 13.088 37.8356 11.7317 37.8327 10.3753C37.8451 10.1107 37.6956 9.83123 37.4245 9.76684C37.0735 9.69063 36.7108 9.74143 36.3552 9.72726Z" fill="white"/>
<path fill-rule="evenodd" clip-rule="evenodd" d="M47.2864 8.658C48.0863 8.658 48.8861 8.65505 49.686 8.65919C50.2236 8.67277 50.8084 8.80983 51.18 9.22748C51.502 9.58548 51.5935 10.0841 51.5965 10.5513C51.5982 11.5934 51.5965 12.6361 51.5971 13.6788C51.5935 14.0704 51.6172 14.4662 51.5386 14.852C51.46 15.2313 51.2533 15.5928 50.9283 15.8125C50.5142 16.0955 49.9967 16.1617 49.507 16.1634C48.7668 16.1699 48.0266 16.1658 47.287 16.1652C47.2864 15.0824 47.2864 14.0001 47.287 12.9173C47.134 12.9173 46.9821 12.9173 46.8303 12.9167C46.8291 12.5995 46.8291 12.2828 46.8297 11.9662C46.9816 11.9656 47.134 11.9656 47.2864 11.965C47.2864 10.8627 47.287 9.76034 47.2864 8.658ZM48.7018 9.72726C48.703 10.4734 48.7024 11.2189 48.7024 11.965C48.9883 11.9662 49.2748 11.965 49.5614 11.9656C49.5608 12.2828 49.5614 12.5995 49.5608 12.9167C49.2742 12.9179 48.9877 12.9167 48.7018 12.9173C48.703 13.6433 48.7024 14.3699 48.7024 15.096C49.0704 15.0824 49.4491 15.1391 49.8089 15.0375C50.0611 14.9613 50.1875 14.6925 50.1793 14.4432C50.1828 13.0862 50.1828 11.7293 50.1793 10.3729C50.1911 10.1077 50.0399 9.82887 49.7681 9.76625C49.4178 9.69122 49.0563 9.74143 48.7018 9.72726Z" fill="white"/>
<path fill-rule="evenodd" clip-rule="evenodd" d="M53.4822 8.65747C54.168 8.65806 54.8545 8.65688 55.5415 8.65806C56.0106 11.1611 56.4932 13.6623 56.9593 16.1659C56.4873 16.1671 56.0147 16.1665 55.5427 16.1659C55.4558 15.7145 55.3802 15.2608 55.2987 14.8083C54.7298 14.8083 54.1609 14.806 53.5926 14.8089C53.5176 15.262 53.4325 15.7134 53.3546 16.1665C52.9215 16.1659 52.4891 16.1676 52.0561 16.1653C52.5334 13.6629 53.0042 11.1593 53.4822 8.65747ZM53.7769 13.7379H55.1085C54.8881 12.4843 54.6583 11.2325 54.4415 9.97838C54.2247 11.2325 53.9937 12.4837 53.7769 13.7379Z" fill="white"/>
<path fill-rule="evenodd" clip-rule="evenodd" d="M57.6144 8.65797C58.2034 8.65678 58.7923 8.65737 59.3813 8.65737C59.8533 10.1384 60.3259 11.62 60.8015 13.0998C60.8021 11.6194 60.8015 10.1384 60.8015 8.65797C61.2209 8.65737 61.6409 8.65678 62.0609 8.65797C62.0609 11.0806 62.0592 13.5033 62.0621 15.9259C62.0509 16.0021 62.0828 16.0955 62.0426 16.1628C61.5659 16.1717 61.0886 16.164 60.6124 16.1658C60.0347 14.3616 59.454 12.5581 58.8815 10.7522C58.8863 12.5563 58.8827 14.361 58.8833 16.1658C58.4603 16.167 58.0374 16.1664 57.615 16.1658C57.6144 13.6634 57.615 11.1604 57.6144 8.65797Z" fill="white"/>
<path fill-rule="evenodd" clip-rule="evenodd" d="M70.0302 8.65797C70.5022 8.65678 70.9742 8.65737 71.4462 8.65737C71.445 9.7408 71.4491 10.8236 71.4438 11.9065C72.0393 10.8189 72.6525 9.7414 73.255 8.65797C73.7259 8.65737 74.1973 8.65678 74.6693 8.65797C74.0218 9.77093 73.3779 10.8863 72.7275 11.9981C73.3714 13.3887 74.0254 14.7752 74.6711 16.1652C74.1872 16.167 73.704 16.167 73.2214 16.1658C72.7689 15.171 72.3163 14.1767 71.8668 13.1807C71.735 13.4105 71.5744 13.6232 71.4521 13.8571C71.4379 14.6263 71.4509 15.396 71.4462 16.1658C70.9742 16.1664 70.5022 16.1675 70.0302 16.1652C70.0302 13.6628 70.0307 11.1604 70.0302 8.65797Z" fill="white"/>
<path fill-rule="evenodd" clip-rule="evenodd" d="M74.8323 8.65915C75.3232 8.65619 75.8142 8.65737 76.3051 8.65797C76.6595 9.79161 77.0169 10.9235 77.3655 12.0589C77.717 10.9247 78.0732 9.7922 78.4247 8.65797C78.8742 8.65678 79.3238 8.65737 79.7733 8.65737C79.1932 10.315 78.6043 11.9691 78.0271 13.6273C77.9887 14.4709 78.0218 15.3198 78.0106 16.1652C77.5386 16.1675 77.0671 16.1664 76.5951 16.1658C76.5945 15.3759 76.5939 14.5861 76.5963 13.7963C76.6046 13.6326 76.5266 13.4838 76.477 13.3331C75.9294 11.7747 75.3788 10.2175 74.8323 8.65915Z" fill="white"/>
<path fill-rule="evenodd" clip-rule="evenodd" d="M8.67279 9.51052C8.76908 9.41304 8.86596 9.31675 8.96285 9.22046C9.37224 9.62807 9.78044 10.0369 10.1886 10.4463C10.0924 10.5426 9.99665 10.6388 9.90095 10.7357C9.48211 10.337 9.07627 9.92463 8.67279 9.51052Z" fill="white"/>
<path fill-rule="evenodd" clip-rule="evenodd" d="M7.67084 10.6808C7.75709 10.5703 7.84393 10.4605 7.93077 10.3506C8.29703 10.6389 8.66566 10.9242 9.02956 11.2154C9.18315 11.0317 9.32611 10.8403 9.47439 10.6536C9.56477 10.7163 9.65339 10.7812 9.74023 10.8486C9.50215 11.1475 9.26763 11.45 9.03133 11.7507C8.57704 11.395 8.11862 11.0447 7.67084 10.6808Z" fill="white"/>
<path fill-rule="evenodd" clip-rule="evenodd" d="M7.32469 11.1875C7.83569 11.4533 8.34373 11.7257 8.85591 11.9903C8.79506 12.1162 8.73362 12.242 8.66569 12.3637C8.25394 12.3649 7.84396 12.4086 7.43221 12.3985C7.74885 12.5669 8.06667 12.7323 8.38449 12.8977C8.31892 13.0218 8.25394 13.1464 8.18718 13.2699C7.67146 13.0129 7.16814 12.7329 6.65656 12.4682C6.71917 12.3436 6.78416 12.2207 6.85032 12.0984C7.25675 12.0931 7.6626 12.0553 8.06903 12.0618C7.76007 11.8893 7.44579 11.7257 7.13211 11.5626C7.19886 11.4386 7.26266 11.3133 7.32469 11.1875Z" fill="white"/>
<path fill-rule="evenodd" clip-rule="evenodd" d="M6.75876 13.1765C7.11203 13.1168 7.50133 13.2338 7.76303 13.479C8.15056 13.8505 7.92313 14.6014 7.39736 14.7012C7.02519 14.7644 6.60399 14.6433 6.34701 14.3609C6.00674 13.971 6.24599 13.2686 6.75876 13.1765ZM6.70501 13.6001C6.49943 13.6804 6.46339 13.9982 6.65834 14.1122C6.8716 14.2404 7.1333 14.3261 7.38377 14.2954C7.62007 14.2729 7.70632 13.9214 7.50842 13.7903C7.28512 13.6219 6.9797 13.5457 6.70501 13.6001Z" fill="white"/>
<path fill-rule="evenodd" clip-rule="evenodd" d="M35.0313 17.6958H79.3374C79.3368 17.8334 79.3368 17.9711 79.3374 18.1093H35.0313C35.0307 17.9711 35.0307 17.8334 35.0313 17.6958Z" fill="white"/>
<path fill-rule="evenodd" clip-rule="evenodd" d="M39.5287 18.8803C39.6238 18.8785 39.7201 18.8768 39.817 18.875C40.0391 19.1202 40.26 19.3671 40.478 19.6164C40.3368 19.6128 40.1897 19.6406 40.0521 19.6069C39.9203 19.4728 39.8045 19.3246 39.6752 19.1887C39.5505 19.3299 39.4271 19.4722 39.3077 19.617C39.1636 19.6199 39.02 19.6205 38.8771 19.6193C39.0832 19.3635 39.319 19.1332 39.5287 18.8803Z" fill="white"/>
<path fill-rule="evenodd" clip-rule="evenodd" d="M47.8576 18.8803C47.9533 18.8785 48.0496 18.8768 48.1465 18.875C48.3686 19.1208 48.5901 19.3671 48.8075 19.617C48.6693 19.6193 48.5311 19.6205 48.3934 19.6223C48.2635 19.4776 48.1347 19.3322 48.0047 19.1887C47.8806 19.3299 47.7572 19.4717 47.6379 19.617C47.4937 19.6199 47.3502 19.6211 47.2066 19.6193C47.4128 19.3635 47.6485 19.1337 47.8576 18.8803Z" fill="white"/>
<path fill-rule="evenodd" clip-rule="evenodd" d="M72.08 19.5513C72.2236 19.5519 72.3677 19.5519 72.5125 19.5536C72.4953 19.8094 72.464 20.0824 72.2992 20.2909C72.1899 20.4451 72.0103 20.5207 71.8372 20.578C71.9613 20.819 72.0422 21.0831 72.0647 21.3542C72.0818 21.9367 72.1226 22.5706 71.7853 23.0798C71.3251 23.8732 70.0544 23.934 69.4902 23.2263C69.1133 22.7773 69.0495 22.1636 69.0779 21.6C69.082 21.0659 69.2551 20.4976 69.6816 20.1503C70.2334 19.7001 71.1089 19.7568 71.6122 20.2566C71.7232 20.2194 71.8467 20.1887 71.9247 20.0924C72.0576 19.9453 72.0546 19.7356 72.08 19.5513ZM70.2629 20.3322C69.8092 20.4835 69.6143 20.9821 69.5824 21.4216C69.5694 21.9178 69.5327 22.4601 69.824 22.8931C70.1306 23.3947 70.9564 23.4272 71.305 22.9552C71.5478 22.6379 71.5903 22.2203 71.5773 21.8333C71.5885 21.4233 71.572 20.9779 71.318 20.6347C71.0911 20.3057 70.628 20.2052 70.2629 20.3322Z" fill="white"/>
<path fill-rule="evenodd" clip-rule="evenodd" d="M68.7707 19.6814C68.9024 19.682 69.0341 19.682 69.1671 19.6826C69.173 20.0004 69.1198 20.3572 68.8711 20.5805C68.6945 20.743 68.4499 20.7873 68.2195 20.8097C68.2189 21.368 68.2195 21.9268 68.2195 22.4857C68.2213 22.8064 68.1019 23.1349 67.8621 23.3535C67.5898 23.6258 67.1898 23.7298 66.8135 23.7121C66.39 23.7209 65.9392 23.5419 65.7059 23.1751C65.5582 22.9535 65.5109 22.6836 65.5139 22.4219C65.5139 21.5789 65.5133 20.7359 65.5145 19.8935H66.0083C66.0101 20.7589 66.0054 21.6244 66.0101 22.4892C66.006 22.7692 66.1342 23.067 66.3911 23.2011C66.6983 23.3493 67.0823 23.3464 67.3806 23.1768C67.6388 23.0215 67.7245 22.7007 67.7215 22.4171C67.7286 21.5759 67.7245 20.7341 67.7233 19.8929C67.8881 19.8935 68.0535 19.8935 68.2189 19.8941C68.2195 20.0796 68.2189 20.2651 68.2189 20.4505C68.3625 20.4257 68.5166 20.3862 68.6141 20.2674C68.7518 20.1056 68.7405 19.8793 68.7707 19.6814Z" fill="white"/>
<path fill-rule="evenodd" clip-rule="evenodd" d="M35.0437 19.8939C35.4951 19.8974 35.9464 19.8838 36.3977 19.9022C36.7008 19.9134 37.0227 19.9884 37.2466 20.2064C37.4611 20.4273 37.5178 20.757 37.4818 21.0535C37.431 21.3412 37.2094 21.5716 36.946 21.6827C37.1072 21.7423 37.2715 21.8191 37.3807 21.9574C37.6826 22.3301 37.656 22.9102 37.3624 23.2795C37.1427 23.5453 36.7859 23.6534 36.4515 23.6605C35.9818 23.6646 35.5122 23.6611 35.0432 23.6617C35.0437 22.4057 35.0426 21.1498 35.0437 19.8939ZM35.5506 20.3175C35.5518 20.7121 35.5506 21.1067 35.5512 21.5013C35.9263 21.4718 36.3304 21.5775 36.6837 21.4145C37.0913 21.2355 37.1078 20.5337 36.676 20.3783C36.3127 20.2655 35.924 20.3364 35.5506 20.3175ZM35.5506 21.9125C35.5518 22.362 35.5506 22.811 35.5512 23.2606C35.944 23.2375 36.3582 23.3238 36.7345 23.1767C37.0464 23.0508 37.1456 22.6669 37.0647 22.365C37.0233 22.1051 36.7658 21.929 36.5135 21.9178C36.1927 21.9036 35.8714 21.9154 35.5506 21.9125Z" fill="white"/>
<path fill-rule="evenodd" clip-rule="evenodd" d="M39.1978 19.917C39.6515 19.7735 40.1808 19.842 40.5601 20.138C41.0817 20.5485 41.2022 21.2627 41.1638 21.8895C41.1833 22.3834 41.054 22.9009 40.7267 23.2807C40.1631 23.9028 39.0283 23.8591 38.5338 23.1714C38.1404 22.6539 38.1345 21.9663 38.1823 21.3466C38.2331 20.7376 38.5888 20.1102 39.1978 19.917ZM39.4176 20.3122C39.1181 20.3878 38.8841 20.633 38.7843 20.9201C38.6538 21.2255 38.6644 21.5617 38.6679 21.8872C38.6538 22.2534 38.7241 22.6386 38.9444 22.9399C39.2841 23.4142 40.1088 23.4083 40.4266 22.9121C40.654 22.5801 40.68 22.1607 40.6694 21.7708C40.6818 21.385 40.6458 20.9697 40.4136 20.6466C40.2021 20.3305 39.7738 20.2159 39.4176 20.3122Z" fill="white"/>
<path fill-rule="evenodd" clip-rule="evenodd" d="M43.6456 20.1627C44.0857 19.7953 44.7473 19.7516 45.2565 19.9944C45.6819 20.1946 45.9099 20.6595 45.9519 21.1109C45.7847 21.1097 45.6181 21.1097 45.4515 21.1115C45.4066 20.874 45.3422 20.6188 45.1573 20.4504C44.807 20.174 44.2523 20.2053 43.928 20.5089C43.6769 20.7623 43.5924 21.131 43.5741 21.476C43.5706 21.9054 43.5369 22.3568 43.7194 22.7591C43.834 23.0225 44.0697 23.2458 44.3604 23.2913C44.6369 23.3362 44.95 23.2931 45.1697 23.107C45.3576 22.944 45.4025 22.6876 45.4533 22.4572C45.6204 22.4584 45.7876 22.459 45.9554 22.4601C45.8993 22.8707 45.7226 23.3067 45.3428 23.5158C45.0208 23.7202 44.625 23.7362 44.257 23.6966C43.7803 23.6204 43.3797 23.2588 43.2173 22.8099C43.033 22.3893 43.082 21.9237 43.0773 21.4777C43.0826 20.9904 43.2616 20.48 43.6456 20.1627Z" fill="white"/>
<path fill-rule="evenodd" clip-rule="evenodd" d="M47.5215 19.9188C47.977 19.7723 48.5098 19.8408 48.8909 20.1386C49.3918 20.5355 49.5295 21.2202 49.4934 21.8281C49.52 22.3533 49.3924 22.9127 49.0303 23.3091C48.436 23.9247 47.2746 23.839 46.8144 23.1029C46.467 22.5907 46.4676 21.9403 46.5119 21.3472C46.5627 20.7399 46.916 20.1143 47.5215 19.9188ZM47.7513 20.3111C47.4506 20.3855 47.2137 20.6312 47.1139 20.9201C46.9833 21.2255 46.994 21.5623 46.9975 21.8878C46.9828 22.2534 47.0536 22.638 47.2728 22.9387C47.6119 23.4137 48.4378 23.4089 48.7556 22.9127C48.9824 22.5819 49.0096 22.1648 48.999 21.7761C49.0114 21.3874 48.9759 20.9691 48.7408 20.6442C48.5299 20.3311 48.1058 20.2171 47.7513 20.3111Z" fill="white"/>
<path fill-rule="evenodd" clip-rule="evenodd" d="M50.226 19.8941C50.3925 19.8929 50.5597 19.8929 50.7269 19.8941C51.3513 20.8629 51.9787 21.8306 52.6043 22.7988C52.5978 21.83 52.6049 20.8612 52.6002 19.8923C52.765 19.8935 52.9304 19.8935 53.0964 19.8941C53.0964 21.15 53.0958 22.406 53.0964 23.6619C52.9304 23.6625 52.7656 23.6625 52.6002 23.6625C51.9746 22.7132 51.3708 21.7485 50.7375 20.8044C50.7281 21.7567 50.7358 22.7096 50.7334 23.6619C50.5639 23.6625 50.3943 23.6625 50.2254 23.6619C50.2254 22.406 50.2248 21.15 50.226 19.8941Z" fill="white"/>
<path fill-rule="evenodd" clip-rule="evenodd" d="M54.1343 20.4364C54.5856 19.7352 55.6838 19.6572 56.3029 20.1718C56.5428 20.3815 56.6627 20.6952 56.7112 21.0029C56.5463 21.0041 56.3809 21.0041 56.2167 21.0041C56.16 20.8133 56.105 20.606 55.945 20.4736C55.7122 20.2527 55.3631 20.2361 55.0641 20.2923C54.7564 20.3632 54.5242 20.6207 54.4344 20.9161C54.2974 21.306 54.3411 21.7236 54.3387 22.1289C54.3677 22.5897 54.5945 23.106 55.0677 23.2549C55.4493 23.3624 55.9107 23.3151 56.2167 23.0446C56.2173 22.7651 56.2161 22.4863 56.2179 22.2069C55.9296 22.2081 55.6413 22.2075 55.353 22.2075C55.3524 22.0663 55.3524 21.9251 55.3536 21.7839H56.7112C56.7117 22.2488 56.7123 22.7143 56.7112 23.1792C56.4158 23.581 55.8918 23.7275 55.4133 23.7115C54.9507 23.7381 54.4769 23.5337 54.1969 23.1621C53.9092 22.784 53.8153 22.2955 53.8277 21.8294C53.8177 21.3521 53.8608 20.8428 54.1343 20.4364Z" fill="white"/>
<path fill-rule="evenodd" clip-rule="evenodd" d="M58.4255 19.8933H61.319C61.319 20.0345 61.319 20.1757 61.3196 20.3169C60.9214 20.3175 60.5232 20.3163 60.1256 20.3175C60.1268 21.4322 60.1256 22.5469 60.1262 23.6617C59.9567 23.6623 59.7871 23.6623 59.6182 23.6617C59.6188 22.5469 59.617 21.4322 59.6188 20.3175C59.2206 20.3163 58.8231 20.3175 58.4249 20.3169C58.4243 20.1757 58.4243 20.0345 58.4255 19.8933Z" fill="white"/>
<path fill-rule="evenodd" clip-rule="evenodd" d="M61.8636 19.894C62.032 19.8934 62.2009 19.8934 62.3705 19.894C62.3711 20.4334 62.3717 20.9733 62.3705 21.5132C62.9937 21.5144 63.617 21.5132 64.2408 21.5138C64.2367 20.9733 64.242 20.4334 64.2378 19.8928C64.4027 19.8934 64.5681 19.8934 64.7335 19.894C64.7347 21.1499 64.7335 22.4059 64.7341 23.6618C64.5687 23.6624 64.4038 23.6624 64.239 23.6618C64.2396 23.0823 64.239 22.5033 64.2396 21.9238C63.6164 21.9244 62.9937 21.9238 62.3711 21.9244V23.6618C62.2015 23.6624 62.032 23.6624 61.863 23.6618C61.8636 22.4059 61.8624 21.1499 61.8636 19.894Z" fill="white"/>
<path fill-rule="evenodd" clip-rule="evenodd" d="M72.851 19.8941C73.0176 19.8929 73.1847 19.8929 73.3525 19.8941C73.9775 20.8629 74.6043 21.8306 75.2299 22.7988C75.2234 21.83 75.2299 20.8612 75.2264 19.8923C75.3906 19.8935 75.556 19.8935 75.7214 19.8941C75.722 21.15 75.7214 22.406 75.722 23.6619C75.556 23.6625 75.3906 23.6625 75.2258 23.6625C74.6002 22.7049 73.9817 21.7426 73.3578 20.7838C73.3608 21.7431 73.3578 22.7025 73.359 23.6619C73.1889 23.6625 73.0199 23.6625 72.851 23.6619C72.851 22.406 72.8504 21.15 72.851 19.8941Z" fill="white"/>
<path fill-rule="evenodd" clip-rule="evenodd" d="M76.7948 20.4735C77.2231 19.7516 78.3172 19.653 78.9546 20.1433C79.2145 20.3524 79.3457 20.6809 79.3959 21.0034C79.2305 21.004 79.0656 21.004 78.902 21.004C78.8447 20.8138 78.7898 20.6065 78.6309 20.4741C78.3963 20.252 78.0448 20.2361 77.7447 20.2934C77.4375 20.3654 77.2066 20.6242 77.118 20.9196C76.9827 21.3083 77.0252 21.7247 77.024 22.1282C77.0524 22.589 77.2786 23.1053 77.7518 23.2548C78.1334 23.3629 78.5948 23.3144 78.9008 23.0451C78.902 22.7656 78.9008 22.4862 78.9026 22.2068C78.6143 22.208 78.326 22.2074 78.0377 22.2074C78.0366 22.0662 78.0372 21.925 78.0383 21.7838H79.3959C79.3965 22.2493 79.3971 22.7148 79.3953 23.1803C79.0993 23.5815 78.5747 23.728 78.0956 23.7114C77.6349 23.7374 77.1634 23.5342 76.8834 23.1644C76.5945 22.7875 76.5 22.2984 76.5124 21.8323C76.5024 21.3679 76.542 20.8764 76.7948 20.4735Z" fill="white"/>
<path fill-rule="evenodd" clip-rule="evenodd" d="M39.5334 24.0368C39.7248 23.95 39.98 24.0894 39.9457 24.3145C39.9534 24.5272 39.7006 24.6305 39.5287 24.5478C39.3237 24.4639 39.3254 24.1136 39.5334 24.0368Z" fill="white"/>
<path fill-rule="evenodd" clip-rule="evenodd" d="M13.6983 3.77657C16.0926 3.4044 18.5956 3.7748 20.7778 4.82929C23.1142 5.94107 25.0643 7.8291 26.2635 10.1212C26.0508 10.201 25.8606 10.3297 25.7082 10.4975C21.9959 14.195 18.2795 17.8889 14.5673 21.587C12.7082 19.7356 10.8479 17.886 8.98825 16.0352C8.78267 15.8438 8.60485 15.6069 8.33724 15.4982C7.92077 15.3115 7.39795 15.4054 7.07541 15.7298C6.70087 16.1031 6.32102 16.4717 5.95299 16.851C5.55305 17.2793 5.58554 18.0142 6.01265 18.4123C8.50974 20.8994 11.0098 23.3835 13.5075 25.8699C13.6971 26.0584 13.879 26.2711 14.1354 26.3697C14.5389 26.528 15.0375 26.4471 15.3459 26.1322C19.409 22.0968 23.4633 18.0526 27.5277 14.0184C27.8886 16.5574 27.4314 19.2069 26.2115 21.4647C25.0814 23.5873 23.3009 25.3542 21.1695 26.4666C18.8827 27.6764 16.2019 28.1171 13.6481 27.7083C10.8219 27.27 8.17006 25.789 6.32279 23.605C4.86069 21.8972 3.89246 19.7722 3.56105 17.5481C3.20247 15.1898 3.56223 12.7282 4.58718 10.5737C5.26831 9.12933 6.23832 7.81906 7.4269 6.75158C9.16842 5.17724 11.3772 4.12807 13.6983 3.77657ZM15.7364 6.4438C15.2543 6.64465 15.1805 7.29152 15.3488 7.72808C15.5237 8.20009 16.2101 8.31469 16.5528 7.96261C16.821 7.67492 16.8357 7.23126 16.7312 6.87209C16.6042 6.47038 16.1138 6.28075 15.7364 6.4438ZM17.1624 6.43612C17.2475 7.03395 17.3166 7.63415 17.391 8.23317C17.5411 8.27098 17.6929 8.30111 17.8447 8.33005C18.1472 7.80193 18.4573 7.27793 18.7527 6.74567C18.5979 6.71495 18.4437 6.68364 18.289 6.65351C18.1011 7.04577 17.8973 7.42975 17.7112 7.82319C17.6941 7.38722 17.6516 6.95243 17.6238 6.51764C17.4708 6.48456 17.3166 6.46093 17.1624 6.43612ZM13.7532 6.64111C13.4437 6.81892 13.3716 7.2224 13.4519 7.54613C13.4933 7.86159 13.6746 8.19891 14.0049 8.28161C14.367 8.35546 14.7646 8.21899 15.0044 7.93721C14.9625 7.69795 14.9164 7.45929 14.8662 7.22181C14.6358 7.26553 14.4048 7.31042 14.1744 7.35591C14.1892 7.45102 14.2045 7.54613 14.2193 7.64183C14.318 7.62647 14.4166 7.61052 14.5153 7.59635C14.5324 7.69264 14.5442 7.78952 14.5537 7.88699C14.4219 7.93189 14.2796 8.00514 14.139 7.94961C13.9942 7.88168 13.934 7.72336 13.8979 7.57862C13.856 7.3949 13.8164 7.19641 13.8844 7.01387C13.957 6.87622 14.113 6.84964 14.2548 6.85082C14.3262 6.91167 14.3877 6.98256 14.4355 7.06349C14.5696 7.04636 14.7025 7.01978 14.8331 6.98433C14.7717 6.84432 14.7025 6.69605 14.5667 6.61334C14.3209 6.47334 13.9954 6.50996 13.7532 6.64111ZM19.5815 7.05522C19.5018 7.6501 19.438 8.24676 19.3529 8.84105C19.49 8.91076 19.6276 8.97929 19.7653 9.04781C20.1965 8.61539 20.6183 8.17469 21.0448 7.73813C20.903 7.66664 20.7595 7.59812 20.6153 7.53255C20.3353 7.85982 20.0535 8.18591 19.7688 8.50905C19.8568 8.08785 19.9248 7.66192 20.0069 7.23953C19.8686 7.16983 19.7304 7.09776 19.5815 7.05522ZM10.985 7.69736C11.2396 8.21663 11.4912 8.73708 11.7524 9.2528C12.108 9.07676 12.4672 8.9084 12.8222 8.7294C12.7738 8.63193 12.7259 8.53445 12.6775 8.43698C12.4435 8.54036 12.2167 8.6591 11.9863 8.77134C11.9272 8.65201 11.8681 8.53327 11.8091 8.41394C12.0034 8.31588 12.1984 8.21899 12.3927 8.12152C12.3466 8.02818 12.3006 7.93425 12.2545 7.84092C12.0578 7.93839 11.8587 8.03055 11.6614 8.12743C11.6053 8.02287 11.5604 7.91358 11.5166 7.8037C11.7482 7.69264 11.9822 7.58689 12.2102 7.46815C12.16 7.37009 12.1103 7.27143 12.0613 7.17337C11.6998 7.34232 11.3512 7.53786 10.985 7.69736ZM10.1668 8.24617C10.3836 8.52914 10.5904 8.81978 10.8089 9.10216C10.4373 8.9273 10.0587 8.77075 9.68356 8.60534C9.57309 8.69041 9.46143 8.77371 9.34919 8.85582C9.69537 9.3166 10.0362 9.78211 10.383 10.2429C10.4935 10.1566 10.6051 10.0722 10.7191 9.99005C10.5106 9.70295 10.3003 9.41703 10.0829 9.13701C10.4545 9.30302 10.8296 9.46311 11.2012 9.6297C11.3128 9.54581 11.4245 9.46193 11.5361 9.37804C11.1965 8.91548 10.8485 8.45884 10.5071 7.99746C10.3925 8.0784 10.2784 8.1611 10.1668 8.24617ZM21.4518 8.00514C21.111 8.46711 20.7624 8.92257 20.4216 9.38395C20.532 9.47197 20.6443 9.55822 20.7583 9.6421C20.9698 9.35323 21.1895 9.07026 21.4004 8.7802C21.3313 9.18073 21.3053 9.58716 21.2344 9.98769C21.3425 10.0822 21.4571 10.1691 21.5741 10.2529C21.9203 9.79097 22.2677 9.3296 22.6127 8.86704C22.4986 8.78611 22.3864 8.70341 22.2765 8.61775C22.0621 8.90131 21.8435 9.1825 21.6397 9.47315C21.6875 9.06849 21.7431 8.66442 21.7921 8.25916C21.6805 8.17173 21.5676 8.08667 21.4518 8.00514ZM18.4508 8.15283C18.2777 8.18768 18.2618 8.47951 18.4343 8.52973C18.5731 8.6337 18.7828 8.48897 18.761 8.32592C18.7332 8.18709 18.5796 8.12034 18.4508 8.15283ZM13.1394 8.21368C13.0012 8.23435 12.8825 8.38145 12.9545 8.5185C13.0219 8.68746 13.2694 8.65497 13.3521 8.51732C13.4578 8.38204 13.2972 8.17055 13.1394 8.21368ZM8.67279 9.51037C9.07627 9.92448 9.48211 10.3368 9.90095 10.7356C9.99665 10.6387 10.0924 10.5424 10.1886 10.4461C9.78044 10.0367 9.37223 9.62793 8.96284 9.22031C8.86596 9.3166 8.76908 9.41289 8.67279 9.51037ZM7.67088 10.6806C8.11867 11.0445 8.57709 11.3949 9.03137 11.7505C9.26767 11.4498 9.5022 11.1473 9.74027 10.8484C9.65343 10.7811 9.56482 10.7161 9.47443 10.6535C9.32615 10.8401 9.18319 11.0315 9.0296 11.2153C8.6657 10.924 8.29707 10.6387 7.93081 10.3504C7.84397 10.4603 7.75713 10.5702 7.67088 10.6806ZM7.3247 11.1875C7.26267 11.3133 7.19887 11.4386 7.13212 11.5626C7.4458 11.7257 7.76008 11.8893 8.06904 12.0618C7.66261 12.0553 7.25677 12.0931 6.85033 12.0984C6.78417 12.2207 6.71919 12.3436 6.65657 12.4682C7.16815 12.7329 7.67147 13.0129 8.18719 13.2699C8.25395 13.1464 8.31893 13.0218 8.3845 12.8977C8.06668 12.7323 7.74886 12.5669 7.43222 12.3985C7.84397 12.4086 8.25395 12.3649 8.6657 12.3637C8.73363 12.242 8.79507 12.1162 8.85592 11.9903C8.34374 11.7257 7.8357 11.4533 7.3247 11.1875ZM6.75877 13.1765C6.246 13.2687 6.00674 13.9711 6.34701 14.361C6.60399 14.6434 7.02519 14.7645 7.39736 14.7013C7.92313 14.6014 8.15057 13.8506 7.76304 13.479C7.50133 13.2338 7.11203 13.1169 6.75877 13.1765Z" fill="#DA282D"/>
<path fill-rule="evenodd" clip-rule="evenodd" d="M28.0014 6.29445C45.3505 6.29445 62.699 6.29386 80.0475 6.29445C80.6807 6.29504 81.3129 6.50358 81.8185 6.88579C82.5168 7.40092 82.9545 8.23801 83 9.10287V22.3846C82.9545 23.3381 82.4235 24.2514 81.6088 24.7512C81.1262 25.0548 80.5549 25.2072 79.9866 25.199C62.6139 25.1972 45.2412 25.1995 27.8685 25.1978C28.9561 23.7912 29.8056 22.1997 30.3568 20.509C31.1862 17.9966 31.3533 15.2703 30.8435 12.6739C30.3957 10.3688 29.4163 8.16889 28.0014 6.29445ZM53.0698 7.08664C53.0734 7.54388 53.3055 8.03302 53.7598 8.19252C54.2129 8.34789 54.7239 8.34375 55.1823 8.20965C55.6632 8.07024 55.9586 7.57401 55.9367 7.08664C55.6567 7.08487 55.3773 7.08546 55.0978 7.08605C55.073 7.24851 55.0423 7.45114 54.8686 7.51848C54.6365 7.61064 54.3635 7.61477 54.132 7.51907C53.9612 7.44759 53.9358 7.24556 53.9104 7.08605C53.6298 7.08605 53.3498 7.08487 53.0698 7.08664ZM77.4718 7.12268C77.1835 7.51848 76.8917 7.91133 76.6064 8.30831C76.9242 8.31008 77.2426 8.30949 77.5616 8.3089C77.9964 7.91428 78.4288 7.51671 78.8648 7.12268C78.3999 7.1215 77.9356 7.12032 77.4718 7.12268ZM40.4904 7.89242C40.7179 8.02711 40.9453 8.16121 41.1733 8.29531C41.3193 7.97572 41.7257 7.91664 42.0217 8.04779C42.3678 8.19252 42.7418 8.35203 43.124 8.25278C43.5139 8.19016 43.8146 7.8877 43.9552 7.5303C43.7283 7.39797 43.5021 7.26446 43.2764 7.12918C43.1287 7.43459 42.7447 7.50844 42.4511 7.38615C42.086 7.23906 41.6944 7.06301 41.2944 7.1788C40.9152 7.24615 40.631 7.54625 40.4904 7.89242ZM41.197 8.62082C40.7155 11.1262 40.247 13.6333 39.768 16.1387C40.1957 16.1381 40.6239 16.1458 41.0516 16.1363C41.1639 15.6962 41.22 15.2319 41.3051 14.7817C41.874 14.7811 42.4429 14.7811 43.0123 14.7817C43.0956 15.2342 43.1695 15.6885 43.2575 16.1404C43.7295 16.1393 44.2021 16.1404 44.6747 16.1398C44.2062 13.6327 43.7248 11.1279 43.2522 8.62141C42.5669 8.62141 41.8816 8.62259 41.197 8.62082ZM63.2242 9.37815C62.8886 9.90097 62.9489 10.5472 62.9447 11.1392C62.9453 12.2019 62.9442 13.2647 62.9453 14.3268C62.9477 14.8053 63.0582 15.3175 63.4049 15.669C63.8061 16.0932 64.4192 16.222 64.9822 16.2196C65.5547 16.2332 66.1797 16.131 66.6121 15.724C66.9807 15.3861 67.1196 14.8715 67.1261 14.3859C67.1349 13.579 67.1272 12.7726 67.1296 11.9662C66.4739 11.965 65.8175 11.9656 65.1618 11.9656C65.1618 12.3218 65.1612 12.6787 65.1624 13.0349C65.3721 13.0355 65.5824 13.0355 65.7933 13.0355C65.791 13.4862 65.7945 13.937 65.7916 14.3883C65.7886 14.5891 65.7721 14.816 65.6208 14.9666C65.4347 15.1391 65.1612 15.1669 64.9202 15.1379C64.7359 15.1155 64.5398 15.0328 64.447 14.8632C64.3365 14.6636 64.3619 14.4273 64.3566 14.2081C64.3649 12.8848 64.3436 11.5604 64.3673 10.2371C64.3844 9.50753 65.661 9.46145 65.7697 10.1603C65.814 10.5077 65.7833 10.8597 65.7933 11.2089C66.2382 11.2101 66.6836 11.2101 67.1296 11.2089C67.1201 10.7073 67.1739 10.1881 67.0067 9.70543C66.8744 9.30845 66.569 8.97585 66.1868 8.8069C65.6988 8.58419 65.1476 8.57592 64.6225 8.61491C64.0807 8.66571 63.5189 8.89906 63.2242 9.37815ZM34.9398 8.65803C34.9404 9.76037 34.9398 10.8627 34.9398 11.965C34.7874 11.9656 34.635 11.9656 34.4831 11.9662C34.4831 12.2829 34.4825 12.6001 34.4837 12.9167C34.6355 12.9173 34.788 12.9173 34.9404 12.9173C34.9392 13.9978 34.9404 15.0789 34.9398 16.1593C35.7379 16.1593 36.536 16.1623 37.3347 16.1582C37.874 16.1452 38.4612 16.0087 38.834 15.5893C39.1695 15.2165 39.2522 14.6943 39.2505 14.2093C39.2499 12.9894 39.2516 11.7695 39.2493 10.549C39.2469 10.0829 39.1553 9.58491 38.8334 9.2281C38.4606 8.80867 37.8734 8.67221 37.3335 8.65921C36.5354 8.65508 35.7373 8.65803 34.9398 8.65803ZM47.2864 8.65803C47.287 9.76037 47.2864 10.8627 47.2864 11.965C47.134 11.9656 46.9816 11.9656 46.8297 11.9662C46.8292 12.2829 46.8292 12.5995 46.8303 12.9167C46.9822 12.9173 47.134 12.9173 47.287 12.9173C47.2864 14.0002 47.2864 15.0824 47.287 16.1652C48.0266 16.1658 48.7668 16.17 49.507 16.1635C49.9967 16.1617 50.5142 16.0955 50.9284 15.8126C51.2533 15.5928 51.46 15.2313 51.5386 14.852C51.6172 14.4663 51.5935 14.0705 51.5971 13.6788C51.5965 12.6361 51.5983 11.5935 51.5965 10.5514C51.5935 10.0841 51.502 9.58551 51.18 9.22751C50.8084 8.80985 50.2236 8.6728 49.686 8.65921C48.8861 8.65508 48.0863 8.65803 47.2864 8.65803ZM53.4822 8.65744C53.0042 11.1593 52.5334 13.6628 52.0561 16.1652C52.4891 16.1676 52.9215 16.1658 53.3545 16.1664C53.4325 15.7133 53.5176 15.262 53.5926 14.8089C54.1609 14.8059 54.7298 14.8083 55.2987 14.8083C55.3802 15.2608 55.4558 15.7145 55.5427 16.1658C56.0147 16.1664 56.4873 16.167 56.9593 16.1658C56.4932 13.6623 56.0105 11.161 55.5415 8.65803C54.8545 8.65685 54.168 8.65803 53.4822 8.65744ZM57.6144 8.65803C57.615 11.1604 57.6144 13.6634 57.615 16.1658C58.0374 16.1664 58.4604 16.167 58.8834 16.1658C58.8828 14.3611 58.8863 12.5564 58.8816 10.7522C59.454 12.5581 60.0347 14.3617 60.6125 16.1658C61.0886 16.1641 61.5659 16.1717 62.0427 16.1629C62.0828 16.0955 62.0509 16.0022 62.0622 15.926C62.0592 13.5033 62.061 11.0807 62.061 8.65803C61.641 8.65685 61.2209 8.65744 60.8015 8.65803C60.8015 10.1384 60.8021 11.6194 60.8015 13.0999C60.326 11.62 59.8534 10.1384 59.3814 8.65744C58.7924 8.65744 58.2034 8.65685 57.6144 8.65803ZM70.0302 8.65803C70.0308 11.1604 70.0302 13.6628 70.0302 16.1652C70.5022 16.1676 70.9742 16.1664 71.4462 16.1658C71.4509 15.3961 71.4379 14.6264 71.4521 13.8572C71.5744 13.6233 71.7351 13.4106 71.8668 13.1808C72.3164 14.1768 72.7689 15.171 73.2214 16.1658C73.704 16.167 74.1873 16.167 74.6711 16.1652C74.0254 14.7752 73.3714 13.3887 72.7275 11.9981C73.3779 10.8863 74.0218 9.771 74.6693 8.65803C74.1973 8.65685 73.7259 8.65744 73.2551 8.65803C72.6525 9.74146 72.0393 10.819 71.4438 11.9066C71.4491 10.8237 71.445 9.74087 71.4462 8.65744C70.9742 8.65744 70.5022 8.65685 70.0302 8.65803ZM74.8324 8.65921C75.3788 10.2176 75.9294 11.7748 76.477 13.3332C76.5266 13.4838 76.6046 13.6327 76.5963 13.7964C76.594 14.5862 76.5945 15.376 76.5951 16.1658C77.0671 16.1664 77.5386 16.1676 78.0106 16.1652C78.0218 15.3199 77.9887 14.471 78.0271 13.6274C78.6043 11.9692 79.1933 10.3151 79.7734 8.65744C79.3238 8.65744 78.8742 8.65685 78.4247 8.65803C78.0732 9.79227 77.717 10.9247 77.3655 12.059C77.0169 10.9235 76.6595 9.79168 76.3051 8.65803C75.8142 8.65744 75.3233 8.65626 74.8324 8.65921ZM35.0313 17.6959C35.0307 17.8335 35.0307 17.9712 35.0313 18.1094H79.3374C79.3368 17.9712 79.3368 17.8335 79.3374 17.6959H35.0313ZM39.5287 18.8803C39.319 19.1332 39.0833 19.3636 38.8771 19.6194C39.0201 19.6205 39.1636 19.6199 39.3078 19.617C39.4271 19.4723 39.5506 19.3299 39.6752 19.1887C39.8046 19.3246 39.9204 19.4728 40.0521 19.6069C40.1897 19.6406 40.3368 19.6129 40.478 19.6164C40.26 19.3671 40.0391 19.1202 39.817 18.875C39.7201 18.8768 39.6238 18.8786 39.5287 18.8803ZM47.8576 18.8803C47.6485 19.1338 47.4128 19.3636 47.2066 19.6194C47.3502 19.6211 47.4937 19.6199 47.6379 19.617C47.7572 19.4717 47.8807 19.3299 48.0047 19.1887C48.1347 19.3322 48.2635 19.4776 48.3935 19.6223C48.5311 19.6205 48.6693 19.6194 48.8076 19.617C48.5902 19.3671 48.3686 19.1208 48.1465 18.875C48.0496 18.8768 47.9533 18.8786 47.8576 18.8803ZM72.0801 19.5514C72.0547 19.7357 72.0576 19.9454 71.9247 20.0925C71.8467 20.1888 71.7232 20.2196 71.6122 20.2568C71.1089 19.757 70.2334 19.7003 69.6816 20.1504C69.2551 20.4978 69.082 21.0661 69.0779 21.6001C69.0495 22.1637 69.1133 22.7775 69.4902 23.2265C70.0544 23.9342 71.3251 23.8733 71.7853 23.0799C72.1226 22.5707 72.0818 21.9369 72.0647 21.3544C72.0423 21.0832 71.9613 20.8192 71.8373 20.5781C72.0103 20.5208 72.1899 20.4452 72.2992 20.291C72.464 20.0825 72.4954 19.8096 72.5125 19.5538C72.3678 19.552 72.2236 19.552 72.0801 19.5514ZM68.7707 19.6814C68.7406 19.8793 68.7518 20.1055 68.6141 20.2674C68.5167 20.3861 68.3625 20.4257 68.2189 20.4505C68.2189 20.265 68.2195 20.0795 68.2189 19.894C68.0535 19.8935 67.8881 19.8935 67.7233 19.8929C67.7245 20.7341 67.7286 21.5759 67.7215 22.4171C67.7245 22.7007 67.6388 23.0215 67.3807 23.1768C67.0823 23.3464 66.6983 23.3493 66.3912 23.2011C66.1342 23.067 66.006 22.7692 66.0101 22.4892C66.0054 21.6243 66.0101 20.7589 66.0084 19.8935H65.5145C65.5133 20.7359 65.5139 21.5789 65.5139 22.4219C65.5109 22.6836 65.5582 22.9535 65.7059 23.1751C65.9392 23.5419 66.39 23.7209 66.8135 23.712C67.1899 23.7298 67.5898 23.6258 67.8621 23.3535C68.102 23.1349 68.2213 22.8064 68.2195 22.4857C68.2195 21.9268 68.2189 21.368 68.2195 20.8097C68.4499 20.7873 68.6945 20.743 68.8711 20.5805C69.1198 20.3572 69.173 20.0004 69.1671 19.6826C69.0342 19.682 68.9024 19.682 68.7707 19.6814ZM35.0437 19.894C35.0426 21.15 35.0437 22.4059 35.0432 23.6618C35.5122 23.6612 35.9819 23.6648 36.4515 23.6607C36.7859 23.6536 37.1427 23.5455 37.3624 23.2796C37.656 22.9104 37.6826 22.3303 37.3807 21.9575C37.2715 21.8193 37.1072 21.7425 36.946 21.6828C37.2094 21.5718 37.431 21.3414 37.4818 21.0537C37.5178 20.7571 37.4611 20.4275 37.2466 20.2066C37.0228 19.9886 36.7008 19.9135 36.3977 19.9023C35.9464 19.884 35.4951 19.8976 35.0437 19.894ZM39.1979 19.9171C38.5888 20.1103 38.2332 20.7376 38.1824 21.3467C38.1345 21.9664 38.1404 22.654 38.5339 23.1715C39.0283 23.8591 40.1632 23.9029 40.7267 23.2808C41.054 22.901 41.1834 22.3835 41.1639 21.8896C41.2023 21.2628 41.0818 20.5486 40.5601 20.138C40.1809 19.8421 39.6516 19.7735 39.1979 19.9171ZM43.6456 20.1628C43.2616 20.4801 43.0826 20.9905 43.0773 21.4778C43.082 21.9239 43.033 22.3894 43.2173 22.81C43.3798 23.2589 43.7803 23.6205 44.257 23.6967C44.6251 23.7363 45.0209 23.7203 45.3428 23.5159C45.7227 23.3068 45.8993 22.8708 45.9554 22.4603C45.7877 22.4591 45.6205 22.4585 45.4533 22.4573C45.4025 22.6877 45.3576 22.9441 45.1697 23.1071C44.95 23.2932 44.6369 23.3363 44.3604 23.2914C44.0698 23.2459 43.8341 23.0226 43.7195 22.7592C43.5369 22.3569 43.5706 21.9055 43.5741 21.4761C43.5925 21.1311 43.6769 20.7624 43.928 20.509C44.2523 20.2054 44.807 20.1741 45.1573 20.4505C45.3422 20.6189 45.4066 20.8741 45.4515 21.1116C45.6181 21.1098 45.7847 21.1098 45.9519 21.111C45.91 20.6597 45.6819 20.1947 45.2566 19.9945C44.7474 19.7517 44.0857 19.7954 43.6456 20.1628ZM47.5215 19.9189C46.916 20.1144 46.5627 20.74 46.5119 21.3473C46.4676 21.9404 46.467 22.5908 46.8144 23.103C47.2746 23.8391 48.436 23.9247 49.0303 23.3092C49.3924 22.9128 49.52 22.3533 49.4934 21.8282C49.5295 21.2203 49.3918 20.5356 48.8909 20.1386C48.5098 19.8409 47.977 19.7724 47.5215 19.9189ZM50.226 19.894C50.2248 21.15 50.2254 22.4059 50.2254 23.6618C50.3943 23.6624 50.5639 23.6624 50.7334 23.6618C50.7358 22.7095 50.7281 21.7567 50.7375 20.8044C51.3708 21.7484 51.9746 22.7131 52.6002 23.6624C52.7656 23.6624 52.9304 23.6624 53.0964 23.6618C53.0958 22.4059 53.0964 21.15 53.0964 19.894C52.9304 19.8935 52.765 19.8935 52.6002 19.8923C52.6049 20.8611 52.5978 21.8299 52.6043 22.7988C51.9787 21.8305 51.3513 20.8629 50.7269 19.894C50.5597 19.8929 50.3925 19.8929 50.226 19.894ZM54.1343 20.4364C53.8608 20.8428 53.8177 21.352 53.8277 21.8293C53.8153 22.2954 53.9093 22.784 54.197 23.1621C54.477 23.5336 54.9508 23.738 55.4133 23.7115C55.8918 23.7274 56.4158 23.5809 56.7112 23.1792C56.7124 22.7143 56.7118 22.2488 56.7112 21.7838H55.3536C55.3525 21.925 55.3525 22.0662 55.353 22.2074C55.6413 22.2074 55.9296 22.208 56.2179 22.2068C56.2161 22.4862 56.2173 22.7651 56.2167 23.0445C55.9107 23.3151 55.4493 23.3623 55.0677 23.2548C54.5945 23.1059 54.3677 22.5896 54.3387 22.1288C54.3411 21.7236 54.2974 21.3059 54.4344 20.916C54.5242 20.6207 54.7564 20.3631 55.0642 20.2922C55.3631 20.2361 55.7122 20.2526 55.945 20.4736C56.1051 20.6059 56.16 20.8133 56.2167 21.0041C56.381 21.0041 56.5464 21.0041 56.7112 21.0029C56.6627 20.6951 56.5428 20.3814 56.303 20.1717C55.6839 19.6572 54.5857 19.7351 54.1343 20.4364ZM58.4255 19.8935C58.4243 20.0346 58.4243 20.1758 58.4249 20.317C58.8231 20.3176 59.2207 20.3164 59.6188 20.3176C59.6171 21.4324 59.6188 22.5471 59.6182 23.6618C59.7872 23.6624 59.9567 23.6624 60.1263 23.6618C60.1257 22.5471 60.1269 21.4324 60.1257 20.3176C60.5233 20.3164 60.9214 20.3176 61.3196 20.317C61.319 20.1758 61.319 20.0346 61.319 19.8935H58.4255ZM61.8637 19.894C61.8625 21.15 61.8637 22.4059 61.8631 23.6618C62.032 23.6624 62.2016 23.6624 62.3711 23.6618V21.9244C62.9938 21.9239 63.6164 21.9244 64.2397 21.9239C64.2391 22.5034 64.2397 23.0823 64.2391 23.6618C64.4039 23.6624 64.5687 23.6624 64.7341 23.6618C64.7335 22.4059 64.7347 21.15 64.7335 19.894C64.5681 19.8935 64.4027 19.8935 64.2379 19.8929C64.242 20.4334 64.2367 20.9733 64.2408 21.5139C63.617 21.5133 62.9938 21.5145 62.3705 21.5133C62.3717 20.9733 62.3711 20.4334 62.3705 19.894C62.201 19.8935 62.032 19.8935 61.8637 19.894ZM72.851 19.894C72.8504 21.15 72.851 22.4059 72.851 23.6618C73.0199 23.6624 73.1889 23.6624 73.359 23.6618C73.3578 22.7025 73.3608 21.7431 73.3578 20.7837C73.9817 21.7425 74.6002 22.7048 75.2258 23.6624C75.3906 23.6624 75.556 23.6624 75.722 23.6618C75.7214 22.4059 75.722 21.15 75.7214 19.894C75.556 19.8935 75.3906 19.8935 75.2264 19.8923C75.2299 20.8611 75.2234 21.8299 75.2299 22.7988C74.6043 21.8305 73.9775 20.8629 73.3525 19.894C73.1848 19.8929 73.0176 19.8929 72.851 19.894ZM76.7948 20.4736C76.542 20.8765 76.5024 21.368 76.5124 21.8323C76.5 22.2984 76.5946 22.7875 76.8834 23.1644C77.1634 23.5342 77.6349 23.7374 78.0956 23.7115C78.5747 23.728 79.0993 23.5815 79.3953 23.1804C79.3971 22.7149 79.3965 22.2494 79.3959 21.7838H78.0383C78.0372 21.925 78.0366 22.0662 78.0378 22.2074C78.326 22.2074 78.6143 22.208 78.9026 22.2068C78.9008 22.4862 78.902 22.7657 78.9008 23.0451C78.5948 23.3145 78.1334 23.3629 77.7518 23.2548C77.2786 23.1054 77.0524 22.589 77.024 22.1283C77.0252 21.7248 76.9827 21.3083 77.118 20.9196C77.2066 20.6242 77.4376 20.3655 77.7447 20.2934C78.0448 20.2361 78.3963 20.252 78.6309 20.4742C78.7898 20.6065 78.8447 20.8138 78.902 21.0041C79.0656 21.0041 79.2305 21.0041 79.3959 21.0035C79.3457 20.6809 79.2145 20.3525 78.9546 20.1433C78.3172 19.653 77.2231 19.7517 76.7948 20.4736ZM39.5334 24.037C39.3255 24.1138 39.3237 24.4641 39.5287 24.548C39.7006 24.6307 39.9534 24.5273 39.9458 24.3146C39.98 24.0895 39.7248 23.9501 39.5334 24.037Z" fill="#DA282D"/>
<path fill-rule="evenodd" clip-rule="evenodd" d="M15.9213 6.74343C16.0642 6.69203 16.2432 6.7452 16.2999 6.89525C16.395 7.13037 16.3826 7.40329 16.2993 7.64018C16.2414 7.8304 15.9809 7.90661 15.8356 7.7666C15.6897 7.60887 15.6944 7.37494 15.7033 7.17467C15.7222 7.01635 15.7517 6.81018 15.9213 6.74343Z" fill="#DA282D"/>
<path fill-rule="evenodd" clip-rule="evenodd" d="M36.3552 9.72728C36.7109 9.74146 37.0736 9.69065 37.4245 9.76686C37.6956 9.83125 37.8451 10.1107 37.8327 10.3753C37.8356 11.7317 37.8362 13.088 37.8327 14.4438C37.841 14.6943 37.7128 14.9631 37.4593 15.0387C37.1002 15.1379 36.7227 15.0824 36.3558 15.096C36.3558 14.37 36.357 13.6433 36.3552 12.9173C36.6411 12.9167 36.9277 12.9179 37.2142 12.9167C37.2148 12.5995 37.2142 12.2829 37.2148 11.9656C36.9282 11.965 36.6417 11.9662 36.3558 11.965C36.3558 11.2189 36.357 10.4734 36.3552 9.72728Z" fill="#DA282D"/>
<path fill-rule="evenodd" clip-rule="evenodd" d="M48.7018 9.72713C49.0563 9.74131 49.4178 9.6911 49.7681 9.76612C50.0399 9.82874 50.1911 10.1076 50.1793 10.3728C50.1828 11.7292 50.1828 13.0861 50.1793 14.4431C50.1876 14.6924 50.0612 14.9612 49.8089 15.0374C49.4491 15.139 49.0705 15.0823 48.7024 15.0958C48.7024 14.3698 48.703 13.6432 48.7018 12.9172C48.9878 12.9166 49.2743 12.9178 49.5608 12.9166C49.5614 12.5993 49.5608 12.2827 49.5614 11.9655C49.2749 11.9649 48.9884 11.9661 48.7024 11.9649C48.7024 11.2188 48.703 10.4732 48.7018 9.72713Z" fill="#DA282D"/>
<path fill-rule="evenodd" clip-rule="evenodd" d="M41.4888 13.7034C41.7068 12.4505 41.9377 11.1993 42.1534 9.94629C42.369 11.1993 42.6006 12.4505 42.818 13.7034C42.3749 13.7005 41.9318 13.7011 41.4888 13.7034Z" fill="#DA282D"/>
<path fill-rule="evenodd" clip-rule="evenodd" d="M53.7769 13.7378C53.9937 12.4836 54.2247 11.2324 54.4415 9.97827C54.6583 11.2324 54.8881 12.4842 55.1085 13.7378H53.7769Z" fill="#DA282D"/>
<path fill-rule="evenodd" clip-rule="evenodd" d="M6.70503 13.6001C6.97973 13.5457 7.28515 13.622 7.50845 13.7903C7.70635 13.9215 7.6201 14.273 7.3838 14.2954C7.13332 14.3261 6.87162 14.2405 6.65836 14.1123C6.46342 13.9983 6.49945 13.6804 6.70503 13.6001Z" fill="#DA282D"/>
<path fill-rule="evenodd" clip-rule="evenodd" d="M35.5506 20.3174C35.924 20.3363 36.3127 20.2654 36.676 20.3782C37.1078 20.5336 37.0913 21.2354 36.6837 21.4144C36.3304 21.5775 35.9263 21.4717 35.5512 21.5013C35.5506 21.1066 35.5518 20.712 35.5506 20.3174Z" fill="#DA282D"/>
<path fill-rule="evenodd" clip-rule="evenodd" d="M39.4177 20.3121C39.7739 20.2158 40.2022 20.3305 40.4137 20.6465C40.6458 20.9696 40.6819 21.3849 40.6694 21.7707C40.6801 22.1606 40.6541 22.58 40.4267 22.912C40.1088 23.4082 39.2841 23.4142 38.9445 22.9398C38.7241 22.6385 38.6538 22.2533 38.668 21.8871C38.6645 21.5616 38.6538 21.2254 38.7844 20.92C38.8842 20.6329 39.1181 20.3878 39.4177 20.3121Z" fill="#DA282D"/>
<path fill-rule="evenodd" clip-rule="evenodd" d="M47.7513 20.311C48.1058 20.217 48.5299 20.3311 48.7408 20.6442C48.976 20.9691 49.0114 21.3873 48.999 21.776C49.0096 22.1647 48.9824 22.5818 48.7556 22.9126C48.4378 23.4089 47.6119 23.4136 47.2728 22.9386C47.0537 22.6379 46.9828 22.2534 46.9975 21.8877C46.994 21.5622 46.9834 21.2255 47.1139 20.92C47.2138 20.6312 47.4506 20.3854 47.7513 20.311Z" fill="#DA282D"/>
<path fill-rule="evenodd" clip-rule="evenodd" d="M70.2629 20.3322C70.628 20.2052 71.0912 20.3056 71.318 20.6347C71.572 20.9779 71.5886 21.4233 71.5773 21.8333C71.5903 22.2203 71.5478 22.6379 71.305 22.9551C70.9565 23.4271 70.1306 23.3947 69.824 22.8931C69.5328 22.4601 69.5694 21.9178 69.5824 21.4216C69.6143 20.982 69.8092 20.4835 70.2629 20.3322Z" fill="#DA282D"/>
<path fill-rule="evenodd" clip-rule="evenodd" d="M35.5506 21.9125C35.8714 21.9154 36.1927 21.9036 36.5135 21.9178C36.7658 21.929 37.0233 22.1051 37.0647 22.365C37.1456 22.6669 37.0464 23.0508 36.7345 23.1767C36.3581 23.3238 35.944 23.2375 35.5512 23.2606C35.5506 22.811 35.5518 22.362 35.5506 21.9125Z" fill="#DA282D"/>
</g>
</g>
</g>
<defs>
<clipPath id="clip0_1_5028">
<rect width="83" height="32" fill="white"/>
</clipPath>
<clipPath id="clip1_1_5028">
<rect width="83" height="32" fill="white"/>
</clipPath>
<clipPath id="clip2_1_5028">
<rect width="83" height="31.8167" fill="white" transform="translate(0 0.0915527)"/>
</clipPath>
</defs>
</svg>
