<svg width="286" height="60" viewBox="0 0 286 60" fill="none" xmlns="http://www.w3.org/2000/svg">
    <path fill-rule="evenodd" clip-rule="evenodd" d="M278 0.5C280.071 0.5 281.946 1.34 283.303 2.697C284.661 4.054 285.5 5.929 285.5 8V52C285.5 54.071 284.66 55.946 283.303 57.303C281.946 58.661 280.071 59.5 278 59.5H64.973C64.857 58.457 64.386 57.522 63.682 56.818C62.868 56.004 61.742 55.5 60.5 55.5C59.257 55.5 58.132 56.004 57.318 56.818C56.614 57.522 56.143 58.458 56.028 59.5H8C5.929 59.5 4.054 58.66 2.697 57.303C1.339 55.946 0.5 54.071 0.5 52V8C0.5 5.929 1.34 4.054 2.697 2.697C4.054 1.339 5.929 0.5 8 0.5H56.027C56.143 1.543 56.614 2.478 57.318 3.182C58.132 3.996 59.258 4.5 60.5 4.5C61.743 4.5 62.868 3.996 63.682 3.182C64.386 2.478 64.857 1.542 64.972 0.5H278Z" fill="#E5F2FF" stroke="#017FFF"/>
    <path d="M60.5 8V56" stroke="#017FFF" stroke-linecap="square" stroke-dasharray="2 4"/>
</svg>
